# xmcd CD database file
#
# Track frame offsets:
#	150
#	28433
#	42013
#	56296
#	71802
#	83479
#	98168
#	109890
#	126469
#	137717
#	154083
#	172996
#	201595
#	216452
#
# Disc length: 3072 seconds
#
# Revision: 0
# Processed by: cddbd v1.5.1PL2 Copyright (c) Steve Scherf et al.
# Submitted via: CDex 1.51
#
DISCID=cf0bfe0e
DTITLE=Ray Charles - The Best Of Ray Charles
DYEAR=2004
DGENRE=Jazz
TTITLE0=Rainy Night In Georgia
TTITLE1=You Are My Sunshine
TTITLE2=Hide Nor Hair
TTITLE3=Don´t Change Me On
TTITLE4=Hallelujah I Love Her So
TTITLE5=You Don´t Know Me
TTITLE6=Lonely Avenue
TTITLE7=Eleanor Rigby Live
TTITLE8=A Stranger In Town
TTITLE9=Georgia On My Mind
TTITLE10=Over The Rainbow
TTITLE11=Makin´ Whopee Live
TTITLE12=Here We Go Again
TTITLE13=One Mint Julep Instrumental
EXTD=YEAR: 2004
EXTT0=
EXTT1=
EXTT2=
EXTT3=
EXTT4=
EXTT5=
EXTT6=
EXTT7=
EXTT8=
EXTT9=
EXTT10=
EXTT11=
EXTT12=
EXTT13=
PLAYORDER=
